<svg width="100" height="100" viewBox="0 0 100 100" fill="none" xmlns="http://www.w3.org/2000/svg">
<ellipse cx="49.5098" cy="50" rx="49.5098" ry="50" fill="white"/>
<rect x="26" y="31" width="48" height="39" rx="4" fill="white" stroke="black" stroke-width="2"/>
<path d="M26 39H74" stroke="black" stroke-width="2"/>
<rect x="29.5" y="43.5" width="5" height="4" fill="white" stroke="black"/>
<rect x="29.5" y="49.5" width="5" height="4" fill="white" stroke="black"/>
<rect x="29.5" y="55.5" width="5" height="4" fill="white" stroke="black"/>
<rect x="29.5" y="61.5" width="5" height="4" fill="white" stroke="black"/>
<rect x="38.5" y="43.5" width="5" height="4" fill="white" stroke="black"/>
<rect x="38.5" y="49.5" width="5" height="4" fill="white" stroke="black"/>
<rect x="38.5" y="55.5" width="5" height="4" fill="white" stroke="black"/>
<rect x="38.5" y="61.5" width="5" height="4" fill="white" stroke="black"/>
<rect x="47.5" y="43.5" width="5" height="4" fill="white" stroke="black"/>
<rect x="47.5" y="49.5" width="5" height="4" fill="white" stroke="black"/>
<rect x="47.5" y="55.5" width="5" height="4" fill="white" stroke="black"/>
<rect x="47.5" y="61.5" width="5" height="4" fill="white" stroke="black"/>
<rect x="56.5" y="43.5" width="5" height="4" fill="white" stroke="black"/>
<rect x="56.5" y="49.5" width="5" height="4" fill="white" stroke="black"/>
<rect x="56.5" y="55.5" width="5" height="4" fill="white" stroke="black"/>
<rect x="56.5" y="61.5" width="5" height="4" fill="white" stroke="black"/>
<rect x="65.5" y="43.5" width="5" height="4" fill="white" stroke="black"/>
<rect x="65.5" y="49.5" width="5" height="4" fill="white" stroke="black"/>
<rect x="65.5" y="55.5" width="5" height="4" fill="white" stroke="black"/>
<rect x="65.5" y="61.5" width="5" height="4" fill="white" stroke="black"/>
</svg>
