<svg width="253" height="59" viewBox="0 0 253 59" fill="none" xmlns="http://www.w3.org/2000/svg">
<path d="M41.796 27.544C45.54 27.544 48.51 28.678 50.706 30.946C52.938 33.214 54.054 36.364 54.054 40.396V58H44.874V41.638C44.874 39.694 44.352 38.2 43.308 37.156C42.3 36.076 40.896 35.536 39.096 35.536C37.296 35.536 35.874 36.076 34.83 37.156C33.822 38.2 33.318 39.694 33.318 41.638V58H24.138V41.638C24.138 39.694 23.616 38.2 22.572 37.156C21.564 36.076 20.16 35.536 18.36 35.536C16.56 35.536 15.138 36.076 14.094 37.156C13.086 38.2 12.582 39.694 12.582 41.638V58H3.348V27.868H12.582V31.648C13.518 30.388 14.742 29.398 16.254 28.678C17.766 27.922 19.476 27.544 21.384 27.544C23.652 27.544 25.668 28.03 27.432 29.002C29.232 29.974 30.636 31.36 31.644 33.16C32.688 31.504 34.11 30.154 35.91 29.11C37.71 28.066 39.672 27.544 41.796 27.544ZM74.2281 58.432C71.2761 58.432 68.6121 57.802 66.2361 56.542C63.8961 55.282 62.0421 53.482 60.6741 51.142C59.3421 48.802 58.6761 46.066 58.6761 42.934C58.6761 39.838 59.3601 37.12 60.7281 34.78C62.0961 32.404 63.9681 30.586 66.3441 29.326C68.7201 28.066 71.3841 27.436 74.3361 27.436C77.2881 27.436 79.9521 28.066 82.3281 29.326C84.7041 30.586 86.5761 32.404 87.9441 34.78C89.3121 37.12 89.9961 39.838 89.9961 42.934C89.9961 46.03 89.2941 48.766 87.8901 51.142C86.5221 53.482 84.6321 55.282 82.2201 56.542C79.8441 57.802 77.1801 58.432 74.2281 58.432ZM74.2281 50.44C75.9921 50.44 77.4861 49.792 78.7101 48.496C79.9701 47.2 80.6001 45.346 80.6001 42.934C80.6001 40.522 79.9881 38.668 78.7641 37.372C77.5761 36.076 76.1001 35.428 74.3361 35.428C72.5361 35.428 71.0421 36.076 69.8541 37.372C68.6661 38.632 68.0721 40.486 68.0721 42.934C68.0721 45.346 68.6481 47.2 69.8001 48.496C70.9881 49.792 72.4641 50.44 74.2281 50.44ZM104.129 32.89C105.209 31.234 106.559 29.938 108.179 29.002C109.799 28.03 111.599 27.544 113.579 27.544V37.318H111.041C108.737 37.318 107.009 37.822 105.857 38.83C104.705 39.802 104.129 41.53 104.129 44.014V58H94.8949V27.868H104.129V32.89ZM127.227 32.89C128.307 31.234 129.657 29.938 131.277 29.002C132.897 28.03 134.697 27.544 136.677 27.544V37.318H134.139C131.835 37.318 130.107 37.822 128.955 38.83C127.803 39.802 127.227 41.53 127.227 44.014V58H117.993V27.868H127.227V32.89ZM154.806 58.432C151.854 58.432 149.19 57.802 146.814 56.542C144.474 55.282 142.62 53.482 141.252 51.142C139.92 48.802 139.254 46.066 139.254 42.934C139.254 39.838 139.938 37.12 141.306 34.78C142.674 32.404 144.546 30.586 146.922 29.326C149.298 28.066 151.962 27.436 154.914 27.436C157.866 27.436 160.53 28.066 162.906 29.326C165.282 30.586 167.154 32.404 168.522 34.78C169.89 37.12 170.574 39.838 170.574 42.934C170.574 46.03 169.872 48.766 168.468 51.142C167.1 53.482 165.21 55.282 162.798 56.542C160.422 57.802 157.758 58.432 154.806 58.432ZM154.806 50.44C156.57 50.44 158.064 49.792 159.288 48.496C160.548 47.2 161.178 45.346 161.178 42.934C161.178 40.522 160.566 38.668 159.342 37.372C158.154 36.076 156.678 35.428 154.914 35.428C153.114 35.428 151.62 36.076 150.432 37.372C149.244 38.632 148.65 40.486 148.65 42.934C148.65 45.346 149.226 47.2 150.378 48.496C151.566 49.792 153.042 50.44 154.806 50.44ZM218.727 27.868L210.573 58H200.367L195.615 38.452L190.701 58H180.549L172.341 27.868H181.575L185.841 49.414L190.917 27.868H200.691L205.821 49.306L210.033 27.868H218.727Z" fill="white"/>
<rect x="219.5" y="0.5" width="9" height="24" rx="4.5" fill="#65B5FF" stroke="black"/>
<rect x="243.5" y="0.5" width="9" height="24" rx="4.5" fill="#65B5FF" stroke="black"/>
<rect x="231.5" y="4.5" width="9" height="11" rx="4.5" fill="#1156BE" stroke="black"/>
</svg>
